<?xml version="1.0" encoding="utf-8"?>
<!-- Generator: Adobe Illustrator 23.0.3, SVG Export Plug-In . SVG Version: 6.00 Build 0)  -->
<svg version="1.1" id="Layer_1" xmlns="http://www.w3.org/2000/svg" xmlns:xlink="http://www.w3.org/1999/xlink" x="0px" y="0px"
	 viewBox="0 0 194.85 47" style="enable-background:new 0 0 194.85 47;" xml:space="preserve">
<style type="text/css">
	.st0{fill:#154734;}
</style>
<title>portal_logo_ideal</title>
<g>
	<path class="st0" d="M159.23,21.54c-0.35-3.13-2.27-5.87-5.1-7.25c-2.17-1.07-4.63-1.41-7.01-0.96c-5.2,0.75-9.03,5.25-8.94,10.51
		c-0.01,0.32,0.01,0.64,0.06,0.96c0.09,3.59,2.23,6.82,5.51,8.29c1.94,0.89,4.1,1.2,6.22,0.9c3.02-0.26,5.77-1.85,7.5-4.34
		c1.63-2.37,2.28-5.28,1.79-8.11 M153.35,28.63c-0.82,2.2-2.4,3.5-4.47,3.5c-1.51-0.03-2.9-0.8-3.72-2.07
		c-0.91-1.43-1.46-3.06-1.59-4.75c-0.23-1.91-0.11-3.84,0.34-5.71c0.24-1.35,0.91-2.59,1.93-3.51c1.82-1.59,4.58-1.4,6.17,0.42
		c0.02,0.02,0.03,0.04,0.05,0.06c0.07,0.15,0.21,0.21,0.28,0.35c0.89,1.23,1.44,2.68,1.57,4.2c0.15,0.89,0.15,1.72,0.21,2.27
		c0.03,1.77-0.23,3.54-0.76,5.23"/>
	<path class="st0" d="M92.68,31.37c-0.68-0.14-1.21-0.66-1.38-1.33c-1.31-3.85-2.68-7.64-3.99-11.49c-0.55-1.51-1.1-3.11-1.65-4.61
		h-7.25l0.13,1.65c0.27,0.05,0.55,0.07,0.83,0.07c0.27,0.07,0.48,0.28,0.41,0.55v0.07c-0.41,1.59-4,11.49-4.68,13.47
		c-0.51,1.33-2.65,1.75-2.86,1.82c-0.07,0.55-0.07,1.04-0.13,1.59h7.49c-0.06-0.55-0.06-1.04-0.13-1.59
		c-0.44-0.05-0.88-0.14-1.31-0.27c-0.34-0.19-0.48-0.6-0.34-0.96l0,0c0.41-1.11,0.76-2.07,1.1-3.17h6.22
		c0.28,1.04,0.55,2.07,0.83,3.17c0.13,0.55-0.07,0.82-0.62,0.96c-0.45,0.13-0.91,0.22-1.38,0.27c-0.04,0.54-0.04,1.04-0.04,1.57
		h9.98c-0.07-0.55-0.07-1.1-0.13-1.59c-0.28-0.07-0.62-0.13-1.04-0.21 M79.68,25.53c0.83-2.41,1.65-4.75,2.48-7.09h0.13
		c0.76,2.34,1.59,4.67,2.41,7.09H79.68z"/>
	<path class="st0" d="M109.88,26.84c-0.21,0.68-0.34,1.38-0.55,2.07c-0.29,0.97-1.08,1.71-2.07,1.93c-1.27,0.22-2.56,0.33-3.85,0.34
		c-0.32,0.01-0.59-0.23-0.62-0.55l0,0V16.86c-0.04-0.43,0.26-0.82,0.69-0.89l0,0c0.57-0.15,1.14-0.27,1.72-0.35
		c0.06-0.55,0.13-1.57,0.13-1.57H95.7c0,0,0.07,1.1,0.15,1.65l1.37,0.34c0.45,0.09,0.75,0.51,0.69,0.96v13.47
		c0.03,0.43-0.27,0.82-0.69,0.9l-1.37,0.4c-0.07,0.56-0.07,1.04-0.15,1.59h15.42l0.55-6.88h-1.65c-0.04,0.14-0.08,0.28-0.15,0.41"/>
	<path class="st0" d="M175.18,26.84c-0.21,0.68-0.34,1.38-0.55,2.07c-0.29,0.97-1.08,1.71-2.07,1.93c-1.27,0.22-2.56,0.33-3.85,0.34
		c-0.32,0.01-0.59-0.23-0.62-0.55l0,0V16.86c-0.04-0.43,0.26-0.82,0.69-0.89l0,0c0.57-0.15,1.14-0.27,1.72-0.35
		c0.06-0.55,0.06-1.1,0.13-1.57H161c0,0,0.07,1.1,0.15,1.65l1.37,0.34c0.45,0.08,0.76,0.51,0.69,0.96v13.47
		c0.04,0.44-0.26,0.83-0.69,0.9l-1.37,0.4c-0.07,0.56-0.07,1.04-0.15,1.59h15.36l0.55-6.88h-1.65c-0.04,0.14-0.06,0.27-0.07,0.41"/>
	<path class="st0" d="M69.02,11.08c-3.2-1.41-6.77-1.77-10.19-1.04c-0.28,0.06-0.55,0.13-0.89,0.2c-0.49,0.13-0.98,0.3-1.45,0.49
		c-3.49,1.26-6.18,4.09-7.25,7.64c-0.59,2.02-0.71,4.15-0.34,6.22c0.12,0.87,0.35,1.73,0.68,2.55c1.16,3.01,3.65,5.31,6.75,6.22
		c2.49,0.87,5.18,1.07,7.77,0.56c1.01-0.15,2.01-0.41,2.96-0.77c1.09-0.41,2.13-0.94,3.11-1.57c0.4-0.22,0.64-0.65,0.61-1.11
		c0.07-0.95,0.15-1.99,0.28-2.95c0.07-0.68,0.13-1.79,0.13-2.48l0,0l-2.4,0.13v0.07c0.01,0.08-0.02,0.15-0.07,0.21l0,0
		c-0.25,1.84-1.04,3.56-2.27,4.95c-1.15,1.12-2.68,1.77-4.28,1.81l0,0c-0.47,0.01-0.94-0.02-1.41-0.08
		c-0.96-0.14-1.88-0.49-2.68-1.04h-0.05c-0.13-0.07-0.25-0.17-0.34-0.28c-0.07-0.06-0.13-0.06-0.13-0.13l-0.21-0.21l-0.21-0.27
		l-0.15-0.15l-0.21-0.21c-0.07-0.06-0.15-0.13-0.15-0.2L56.5,29.5c-0.07-0.06-0.13-0.21-0.21-0.27l0,0
		c-0.33-0.45-0.6-0.94-0.83-1.45c-1.5-3.25-1.79-6.92-0.82-10.36c0.18-0.66,0.43-1.31,0.76-1.92c0.62-1.25,1.64-2.27,2.89-2.89
		l0.27-0.15l0.07-0.06c1.21-0.55,2.53-0.81,3.85-0.76c1.12,0.1,2.2,0.51,3.11,1.17c1.36,1.04,2.35,2.49,2.82,4.14v0.07
		c0.06,0.28,0.15,0.56,0.27,0.82l0,0l2.07-0.13l0,0l-0.3-5.68c-0.13-0.13-0.34-0.21-0.48-0.34C69.71,11.43,69.38,11.22,69.02,11.08"
		/>
	<path class="st0" d="M138.17,15.48c-0.3-1.96-1.63-3.61-3.47-4.33c-1.79-0.83-3.75-1.23-5.72-1.17h-10.36
		c0.01,0.51,0.05,1.01,0.13,1.51v0.07l1.51,0.4c0.39,0.07,0.66,0.43,0.62,0.83v17.61c-0.01,0.38-0.26,0.71-0.62,0.83l-1.44,0.41
		v0.06c0,0.49-0.15,1.51-0.15,1.51h9.33c0,0-0.06-1.04-0.13-1.57l0,0l-1.44-0.41c-0.29-0.06-0.52-0.27-0.62-0.55v-0.21
		c0-5.23,0-15.42,0.07-18.16c0-0.38,0.3-0.69,0.68-0.69h1.93c1.95,0.1,3.61,1.43,4.14,3.31c0.44,1.36,0.46,2.82,0.07,4.2
		c-0.55,1.85-1.65,3.38-4.82,3.44l-0.13,1.59c2.79,0.22,5.58-0.56,7.84-2.21c1.97-1.52,2.95-4.01,2.55-6.47"/>
	<path class="st0" d="M194.8,13.97h-7.37c0.08,0.55,0.13,1.1,0.15,1.65c0.19,0.03,0.37,0.08,0.55,0.15c1.1,0.27,1.23,0.76,0.68,1.72
		s-3.34,6.81-3.34,6.81s-2.55-4.54-3.51-6.54c-0.13-0.34-0.96-1.57,0.34-1.93l1.11-0.21c0-0.55,0.13-1.65,0.13-1.65h-9.77
		c0.07,0.62,0.07,1.1,0.13,1.65c0.94,0.25,1.79,0.78,2.41,1.52c0.55,0.89,4.26,8.05,5.57,10.04v3.31c0.01,0.41-0.29,0.76-0.69,0.83
		l-0.48,0.13l-0.96,0.27l-0.15,1.59h9.33c0,0-0.07-1.04-0.15-1.59l0,0l-1.44-0.4l-0.13-0.07c-0.26-0.07-0.44-0.29-0.49-0.55v-0.21
		c0-0.55-0.07-3.17,0-3.31l3.92-7.92c1.04-1.57,2.07-3.16,4.06-3.57c0.06-0.34,0.13-1.72,0.13-1.72"/>
	<path class="st0" d="M26.7,27.98l-1.83-1.97l1.11-1.04l-1.2-1.14l-0.69,0.61l0.15,1.04l-2.41-2.61h-0.89l-2,1.78v0.9l2,2.13h-0.28
		l-0.34,0.34l-2.4,2.34l-6.95-7.57l-0.49-0.48l-0.09,3.59c-0.05,0.43,0.05,0.87,0.28,1.23c0,0.07,0.06,0.07,0.06,0.13
		c0.3,0.39,0.71,0.68,1.17,0.83c0.73,0.26,1.49,0.42,2.27,0.49h0.55l-0.48,0.27h-0.07c-0.4,0.14-0.81,0.2-1.23,0.21
		c-0.51,0-1.02-0.07-1.51-0.21c0.06,0.13,0.21,0.21,0.34,0.34l0.07,0.07c0.56,0.5,1.25,0.83,1.99,0.96
		c0.76,0.13,2.13,0.34,2.13,0.34l0.49,0.07l-0.41,0.21h-0.07c-0.4,0.2-0.86,0.27-1.31,0.21c-0.47,0-0.93-0.07-1.38-0.21l0.28,0.27
		l0.06,0.15c0.42,0.4,0.95,0.68,1.51,0.82c0.2,0.08,0.41,0.13,0.62,0.15c0.47,0.13,0.96,0.2,1.45,0.2l0.48,0.07l-0.28,0.13
		l-0.13,0.07c-0.45,0.2-0.95,0.28-1.44,0.21c-0.26-0.01-0.51-0.05-0.76-0.13l0,0l-3.48,3.27l1.17,1.24l3.5-3.29
		c0.86,0.48,1.83,0.74,2.82,0.76l1.52,0.06l2.61,2.68h1.38l-5.57-6.05l2.4-2.27l0.34-0.35l0.07-0.06l0.07-0.07l1.85,2h0.89
		l2.07-1.79C26.7,28.91,26.7,27.98,26.7,27.98z"/>
	<path class="st0" d="M18.16,3.93c0.01-0.07-0.01-0.15-0.06-0.21c-0.1-0.07-0.23-0.09-0.35-0.07h-0.27V4.2h0.27
		C18.03,4.2,18.16,4.12,18.16,3.93"/>
	<path class="st0" d="M11.4,4.2c0.01-0.08-0.02-0.15-0.07-0.21c-0.12-0.09-0.27-0.11-0.41-0.06h-0.27v0.68h0.27
		C11.25,4.61,11.4,4.48,11.4,4.2"/>
	<path class="st0" d="M18.3,5.09c0.01-0.07-0.01-0.15-0.06-0.21c-0.13-0.07-0.27-0.12-0.41-0.13h-0.34v0.62h0.34
		C18.16,5.44,18.3,5.29,18.3,5.09"/>
	<path class="st0" d="M27.04,5.65c0.13,0,0.27,0,0.34-0.15c0.16-0.19,0.24-0.44,0.21-0.68c0-0.55-0.21-0.89-0.55-0.89h-0.1
		c-0.12,0.01-0.24,0.06-0.34,0.13c-0.17,0.18-0.24,0.44-0.21,0.68c0,0.55,0.28,0.9,0.62,0.9"/>
	<path class="st0" d="M24.29,5.29c0.14-0.2,0.21-0.44,0.21-0.68c0-0.55-0.21-0.83-0.76-0.89h-0.07V5.5h0.07
		C23.94,5.51,24.14,5.44,24.29,5.29"/>
	<path class="st0" d="M35.78,17.69L35.78,17.69l-0.13-0.07l0,0c-1.31-0.89-3.93-3.44-4.14-3.44l-9.33,3.37h-0.21l-0.48-0.13
		l-1.72-0.41l-0.28-0.06l-0.28-0.07l0,0L19,16.79l-0.2-0.06l-0.57-0.15l-0.21-0.06l-0.28-0.07l-0.13-0.06l-0.41,0.13l-0.13-0.07
		l-0.28-0.06l-0.13-0.07h-0.07l-0.27,0.13l-0.28,0.07l-0.21,0.13l-0.13,0.07l-0.27,0.13l-0.15,0.07l-0.21,0.13l-0.21,0.13l-0.4,0.21
		l-0.21,0.07l-0.35,0.21h-2.4c-4.06,0-8.73,0.27-9.49,0.27l0.13-4.4l9.49,3.51c0.01-0.05,0.03-0.1,0.07-0.13
		c0-0.07,0.07-0.07,0.07-0.15c0.01-0.1,0.06-0.2,0.13-0.27l0.06-0.13c0-0.07,0.07-0.07,0.07-0.15l-9.83-5.03l0.06-1.1
		C3.44,9.98,5.03,9.84,6.81,9.7l5.99,5.44L12.93,15l0.15-0.15l0.21-0.21l0.13-0.06l0.13-0.07L9.64,9.49
		c0.96-0.06,1.93-0.17,2.89-0.17l2.2,4.54l0.13-0.06L15,13.73l0.27-0.06l0.15-0.07l0.13-0.07l-1.05-4.37h0.76
		c0.62,0,1.31-0.06,1.93-0.06l-0.4,4.38h0.28l0.27,0.06h0.15l0.13,0.07l1.38-4.54h2.77l-2.9,4.97l0.13,0.06l0.13,0.07l0.21,0.13
		l0.13,0.07l0.15,0.07l0,0l0.06-0.15l4.48-5.29c1.79,0.07,3.51,0.13,5.03,0.28l-8.75,6.05l0.07,0.13c0,0.07,0.07,0.07,0.07,0.13
		l0.06,0.15c0,0.06,0.07,0.06,0.07,0.13s0.07,0.07,0.07,0.13s0.06,0.07,0.06,0.15l12.25-6.54l1.87,0.21h0.2L35.78,17.69z
		 M25.19,17.96l0.4-0.13l5.03-1.85l0,0l-3.31,2.13l0,0C27.31,18.1,25.19,17.96,25.19,17.96z M35.64,24.02
		c-0.07,0.84-0.21,1.66-0.41,2.48c-0.36,1.59-0.91,3.14-1.65,4.59c-1.03,2.11-2.44,4.02-4.14,5.64c-5.84,5.85-11,7.16-11,7.16
		s-4.82-1.51-10.47-7.09c-1.65-1.67-3.05-3.57-4.14-5.65c-0.67-1.32-1.2-2.71-1.59-4.14c-0.06-0.76-0.21-1.51-0.34-2.27
		c-0.08-0.59-0.13-1.19-0.13-1.79l0.13-0.07c1.23-0.59,2.53-1.04,3.85-1.37c1.92-0.51,3.87-0.88,5.84-1.11
		c2.15-0.25,4.31-0.36,6.48-0.34c1.16,0,2.33,0,3.37,0.07c4.8,0.12,9.56,0.97,14.1,2.54l0.07,0.07c0.07,0.41,0.07,0.83,0,1.24
		 M2.21,4.14L2.21,4.14l0.68-0.06l0,0v2.13l1.04-0.13h0.06V6.7l0,0L2.27,6.91H2.21V4.14z M4.68,3.88L4.68,3.88l1.78-0.13h0.07v0.61
		l0,0L5.37,4.42V4.9l0.85-0.08l0,0v0.55l0,0L5.25,5.44v0.55l1.11-0.07h0.06v0.62l0,0c-0.6,0.01-1.19,0.06-1.78,0.13H4.61L4.68,3.88z
		 M6.88,6.47C7.16,5.5,7.43,4.54,7.77,3.65l0,0l0.76-0.13l0,0l0.9,2.7h-0.1L8.64,6.29l0,0L8.5,5.67L7.74,5.74
		C7.68,5.88,7.61,6.15,7.53,6.36l0,0L6.85,6.42L6.88,6.47z M9.99,3.44L9.99,3.44l1.04-0.07c0.31-0.03,0.63,0.04,0.89,0.21
		c0.13,0.15,0.21,0.35,0.21,0.55c0,0.34-0.19,0.66-0.49,0.83l0.62,1.04v0.06h-0.07L11.5,6.12l0,0c-0.16-0.33-0.35-0.64-0.56-0.94
		h-0.28v1.04H10.6H9.98H9.91L9.99,3.44z M12.74,3.31h0.73c0.28,0.48,0.48,0.89,0.76,1.38l0.21,0.4c-0.06-0.27-0.08-0.54-0.07-0.82
		V3.16h0.69v2.83h-0.69c-0.22-0.48-0.47-0.94-0.76-1.38L13.4,4.2v0.07c0,0.27,0.07,0.55,0.07,0.76v1.04h-0.76L12.74,3.31z
		 M16.8,3.16h0.96c0.33-0.04,0.66,0.06,0.9,0.28c0.12,0.11,0.2,0.25,0.21,0.41c0,0.25-0.14,0.49-0.35,0.62
		c0.3,0.09,0.5,0.37,0.49,0.68c0,0.55-0.41,0.83-1.1,0.89h-1.04V3.16L16.8,3.16z M19.27,3.16h0.69l0.27,0.62
		c0.07,0.15,0.07,0.28,0.15,0.41l0.06,0.13c0-0.06,0.07-0.13,0.07-0.21c0.03-0.12,0.08-0.23,0.13-0.34l0.27-0.67h0.76v0.06
		l-0.83,1.79V6h-0.76V4.96l-0.83-1.79l0,0L19.27,3.16z M22.99,3.16h0.84c0.74-0.06,1.38,0.49,1.44,1.22c0.01,0.08,0.01,0.15,0,0.23
		c0,0.37-0.12,0.74-0.34,1.04c-0.28,0.21-0.62,0.33-0.96,0.34H23L22.99,3.16z M26.15,3.57c0.24-0.23,0.58-0.33,0.9-0.27
		c0.77,0.05,1.36,0.71,1.31,1.48c0,0.01,0,0.02,0,0.03c0.02,0.4-0.12,0.8-0.38,1.1c-0.22,0.22-0.52,0.35-0.83,0.34h-0.1
		c-0.79-0.08-1.37-0.78-1.31-1.57c-0.03-0.41,0.11-0.82,0.4-1.11 M28.9,3.44L28.9,3.44l0.69,0.07l0,0V6.4l0,0L28.9,6.33l0,0V3.44z
		 M30.48,3.57L30.48,3.57l0.68,0.07l0,0l0.69,1.44l0.21,0.49l0,0c0-0.28-0.07-0.55-0.07-0.83V3.71h0.12l0.61,0.06h0.07v2.84h-0.07
		l-0.61-0.07l0,0l-0.76-1.45l-0.28-0.48v0.07c0,0.27,0.06,0.55,0.06,0.76v1.04h-0.06l-0.62-0.06h-0.07L30.48,3.57z M33.72,4.2
		c0.27-0.22,0.62-0.32,0.96-0.27c0.35,0.04,0.67,0.21,0.89,0.48l0,0l-0.41,0.41l0,0c-0.11-0.16-0.29-0.26-0.48-0.28
		c-0.18-0.02-0.35,0.03-0.49,0.15c-0.13,0.2-0.27,0.4-0.2,0.61c-0.06,0.47,0.27,0.9,0.74,0.96c0,0,0.01,0,0.01,0
		c0.09,0.02,0.19,0,0.27-0.04V5.84l-0.41-0.06h-0.06v-0.6h0.06l1.04,0.13l0,0v1.3l0,0c-0.22,0.16-0.48,0.25-0.76,0.27h-0.13
		c-0.81-0.05-1.43-0.75-1.38-1.56c0-0.01,0-0.02,0-0.03C33.3,4.89,33.43,4.48,33.72,4.2 M27.31,0.28h-0.27
		c-2-0.15-4.2-0.21-6.4-0.28h-2.61c-1.93,0-3.85,0.07-5.6,0.13h-0.27l-2.05,0.15H9.77C4.2,0.68,0,1.17,0,1.17v5.05l0.07,3.9v2.68
		l0.13,9.77c0.02,3.19,0.75,6.34,2.13,9.22C6.22,39.63,14.1,44.55,17.2,46.31L18.51,47l1.24-0.69c3.23-1.75,11.49-6.75,15.48-14.65
		c1.44-2.79,2.2-5.88,2.21-9.01l0.27-12.28l0.07-4.54V1.24C37.78,1.24,33.3,0.62,27.31,0.28"/>
	<path class="st0" d="M8.39,4.95c-0.1-0.13-0.1-0.34-0.1-0.55L8.22,4.2L8.01,5.03L7.95,5.23l0.45-0.05V4.95z"/>
</g>
</svg>
